<svg xmlns="http://www.w3.org/2000/svg" viewBox="0 0 400 300"><g id="_257_personal_data_flatline" data-name="#257_personal_data_flatline"><rect x="45.2" y="59.26" width="309.59" height="181.48" rx="13.44" fill="#fff"/><path d="M341.35,241.24H58.65A14,14,0,0,1,44.7,227.3V72.7A14,14,0,0,1,58.65,58.76h282.7A14,14,0,0,1,355.3,72.7V227.3A14,14,0,0,1,341.35,241.24ZM58.65,59.76A13,13,0,0,0,45.7,72.7V227.3a13,13,0,0,0,12.95,12.94h282.7A13,13,0,0,0,354.3,227.3V72.7a13,13,0,0,0-12.95-12.94Z" fill="#231f20"/><rect x="75.67" y="96.4" width="101.62" height="122.71" fill="#fff"/><path d="M177.28,96.4V219.11H75.67V96.4H177.28m0-1H75.67a1,1,0,0,0-1,1V219.11a1,1,0,0,0,1,1H177.28a1,1,0,0,0,1-1V96.4a1,1,0,0,0-1-1Z" fill="#231f20"/><path d="M93.28,150.16c-2.84,4.56-3.56,10.05-3.94,15.45h76.9a3.85,3.85,0,0,0,.11-.94c0-5.57-8.87-7.15-10.1-12.3-.73-3,1.25-6,1.67-9.13.69-5.23-3-9.86-5.38-14.58-2.88-5.81-1.41-13.17-5.14-18.26-4.94-6.75-12.94-8.13-20.93-8.13a31.58,31.58,0,0,0-13,2.62c-3.82,1.63-5.54,5.37-6.45,9.4-1.53-.67-3.32,0-4.7,1-6.14,4.18-7.81,12.4-6.6,19.33.58,3.32,1.8,6.75.8,10C95.9,146.65,94.42,148.32,93.28,150.16Z" fill="#fff"/><path d="M166.24,166.13H89.34A.55.55,0,0,1,89,166a.56.56,0,0,1-.13-.39c.36-5.05,1-10.85,4-15.7h0c.34-.53.7-1.06,1.06-1.58a14.22,14.22,0,0,0,2.15-3.86c.75-2.39.19-5-.36-7.51-.16-.74-.32-1.48-.45-2.22-1.09-6.26,0-15.22,6.82-19.85a6,6,0,0,1,4.62-1.24c1.18-4.79,3.35-7.81,6.61-9.21a32.42,32.42,0,0,1,13.18-2.66c7.1,0,15.93,1,21.35,8.34,2.12,2.89,2.62,6.51,3.11,10a26.88,26.88,0,0,0,2.07,8.34c.54,1.08,1.17,2.19,1.77,3.26,2.07,3.65,4.21,7.43,3.66,11.61a20.11,20.11,0,0,1-.91,3.51c-.62,1.88-1.2,3.67-.77,5.44.53,2.22,2.62,3.74,4.83,5.35,2.59,1.88,5.27,3.84,5.28,7.07a4.08,4.08,0,0,1-.12,1.07A.52.52,0,0,1,166.24,166.13Zm-76.34-1h75.91a3,3,0,0,0,0-.42c0-2.72-2.36-4.43-4.86-6.25-2.26-1.65-4.6-3.35-5.22-5.94-.5-2.06.16-4.06.79-6a20.07,20.07,0,0,0,.87-3.32c.51-3.84-1.55-7.47-3.53-11-.62-1.08-1.25-2.2-1.8-3.31a27.7,27.7,0,0,1-2.17-8.66c-.5-3.52-1-6.85-2.92-9.53-5.15-7-13.67-7.91-20.52-7.91a31.25,31.25,0,0,0-12.77,2.57c-3.1,1.33-5.06,4.21-6.15,9a.51.51,0,0,1-.71.35c-1.48-.65-3.27.32-4.2.95-6.38,4.35-7.42,12.86-6.38,18.82.13.73.28,1.46.44,2.19.57,2.65,1.16,5.38.34,8a15.54,15.54,0,0,1-2.29,4.15c-.35.51-.71,1-1,1.54h0C90.93,154.91,90.25,160.3,89.9,165.1Zm3.38-14.94h0Z" fill="#231f20"/><path d="M177.28,183.66v35.45H75.67V183.68c10.26-9.74,25-13.08,37.58-14.18,4.86-.43,9.39-.53,13.23-.53h.9c3.58,0,7.72.12,12.11.51a.86.86,0,0,1,.22,0C152.31,170.6,167,173.94,177.28,183.66Z" fill="#189047"/><path d="M140,176.29v0h0l-9.57,33.12-2.81,9.67h-2.28l-2.81-9.71-9.55-33a.24.24,0,0,0,0-.08v0C119.43,174.37,133.53,174.37,140,176.29Z" fill="#231f20"/><path d="M113,176.3s3.37,7.35,13.22,7.35A15.9,15.9,0,0,0,140,176.3l-1.32-28.88H114.26Z" fill="#fff"/><path d="M126.17,184.17c-10.06,0-13.66-7.58-13.69-7.65a.52.52,0,0,1,0-.24l1.32-28.89a.52.52,0,0,1,.51-.49H138.7a.52.52,0,0,1,.52.49l1.31,28.89a.53.53,0,0,1-.06.27A16.57,16.57,0,0,1,126.17,184.17Zm-12.7-8c.46.93,3.85,6.95,12.7,6.95a15.51,15.51,0,0,0,13.32-7l-1.28-28.24H114.76Z" fill="#231f20"/><path d="M114.26,159.78a20.06,20.06,0,0,0,7.39,6.47c4.84,2.68,12.08,5.69,17.95,4.79l-1-12.21a55,55,0,0,1-13,.08c-3.79-.33-7.7-.69-11.18-2.16C113.9,156.48,113.51,158.6,114.26,159.78Z" fill="#231f20"/><path d="M137.36,171.7c-5.92,0-12.38-3-16-5a20.17,20.17,0,0,1-7.57-6.65,3.53,3.53,0,0,1,0-3.51.75.75,0,0,1,.91-.23c3.46,1.45,7.48,1.81,11,2.12a54.26,54.26,0,0,0,12.84-.08.54.54,0,0,1,.39.1.54.54,0,0,1,.18.35l1,12.21a.51.51,0,0,1-.42.54A16.14,16.14,0,0,1,137.36,171.7Zm-22.88-14.42a2.86,2.86,0,0,0,.2,2.23h0a19.28,19.28,0,0,0,7.21,6.3c3.83,2.12,11.08,5.51,17.18,4.79l-.89-11.21a56.19,56.19,0,0,1-12.55,0C122.08,159.1,118.05,158.75,114.48,157.28Zm-.18-.07h0Z" fill="#231f20"/><polygon points="126.48 191.28 121.84 187.7 126.48 184.11 131.13 187.7 126.48 191.28" fill="#fff"/><polygon points="130.43 209.44 127.62 219.11 125.34 219.11 122.53 209.4 124.83 190.01 124.83 190 124.92 189.33 124.97 188.92 128 188.92 128.05 189.35 128.13 190 128.13 190.01 130.43 209.44" fill="#fff"/><path d="M92.12,219.62a.53.53,0,0,1-.52-.45L87.65,189.4a.51.51,0,0,1,1-.14l4,29.78a.52.52,0,0,1-.45.58Z" fill="#231f20"/><path d="M160.85,219.62h-.07a.52.52,0,0,1-.44-.58l3.95-29.78a.52.52,0,0,1,1,.14l-4,29.77A.52.52,0,0,1,160.85,219.62Z" fill="#231f20"/><path d="M141.88,140.78c.81-6.78,9.19-8.45,8.78-.46a14.13,14.13,0,0,1-2.24,7.49c-1.43,2-3.75,2.89-5.62,1.77" fill="#fff"/><path d="M144.55,150.58a3.88,3.88,0,0,1-2-.56.52.52,0,0,1-.17-.71.51.51,0,0,1,.7-.17c1.54.92,3.57.25,4.95-1.63a13.64,13.64,0,0,0,2.13-7.22c.15-2.83-.86-4.62-2.71-4.78-2.12-.2-4.63,1.92-5,5.33a.52.52,0,0,1-1-.13c.5-4.13,3.58-6.45,6.16-6.23,1.91.17,3.87,1.79,3.65,5.86a14.75,14.75,0,0,1-2.33,7.78A5.5,5.5,0,0,1,144.55,150.58Z" fill="#231f20"/><path d="M110.28,140.78c-.81-6.78-9.19-8.45-8.78-.46a14.13,14.13,0,0,0,2.24,7.49c1.43,2,3.75,2.89,5.62,1.77" fill="#fff"/><path d="M107.6,150.58a5.5,5.5,0,0,1-4.28-2.46,14.72,14.72,0,0,1-2.33-7.78c-.22-4.07,1.74-5.69,3.65-5.86,2.57-.22,5.66,2.1,6.15,6.23a.51.51,0,0,1-.45.58.52.52,0,0,1-.57-.45c-.41-3.41-2.94-5.53-5-5.33-1.84.16-2.85,2-2.7,4.78a13.64,13.64,0,0,0,2.13,7.22c1.38,1.88,3.41,2.55,4.95,1.63a.51.51,0,0,1,.7.17.52.52,0,0,1-.17.71A3.89,3.89,0,0,1,107.6,150.58Z" fill="#231f20"/><path d="M144.54,125.9v19.64a17.06,17.06,0,0,1-17.07,17.06h-2a17.06,17.06,0,0,1-17.07-17.06V126.91l10.74-.89,1.23-8.52,2.69,9.64,7.63-1c.78-3.41,0-10.77-.12-11.1l5.5,10.31Z" fill="#fff"/><path d="M127.47,163.12h-2a17.61,17.61,0,0,1-17.59-17.58V126.91a.52.52,0,0,1,.47-.51l10.34-.86,1.17-8.12a.53.53,0,0,1,.48-.44.5.5,0,0,1,.53.38l2.57,9.21,6.82-.9c.62-3.4-.12-10.17-.19-10.53a.52.52,0,0,1,1-.35l5.36,10.06,8.17.54a.51.51,0,0,1,.48.51v19.64A17.6,17.6,0,0,1,127.47,163.12Zm-18.55-35.73v18.15a16.58,16.58,0,0,0,16.56,16.55h2A16.57,16.57,0,0,0,144,145.54V126.39l-8-.53a.55.55,0,0,1-.42-.27l-4.26-8a35,35,0,0,1-.16,8.66.52.52,0,0,1-.43.4l-7.63,1a.52.52,0,0,1-.56-.37l-2-7.29-.88,6.1a.51.51,0,0,1-.47.44Z" fill="#231f20"/><rect x="141.88" y="199.76" width="16.72" height="4.45" fill="#fff"/><path d="M126.75,147.65a21.49,21.49,0,0,1-2.46-.14,1.18,1.18,0,0,1-.86-.58c-1.28-2.13,2.06-11.1,2.75-12.87a.51.51,0,0,1,1,.36c-1.51,3.94-3.61,10.67-2.83,12,0,.08.08.08.11.08a21.69,21.69,0,0,0,4.82,0,.52.52,0,0,1,.58.45.53.53,0,0,1-.45.58A23,23,0,0,1,126.75,147.65Z" fill="#231f20"/><path d="M354.8,79H45.2a.5.5,0,0,1-.5-.5.51.51,0,0,1,.5-.5H354.8a.51.51,0,0,1,.5.5A.5.5,0,0,1,354.8,79Z" fill="#231f20"/><rect x="239.42" y="106.49" width="88.28" height="4.25" rx="2.13" fill="#d1d3d4"/><rect x="239.42" y="140.4" width="53.72" height="4.25" rx="2.13" fill="#d1d3d4"/><rect x="239.42" y="172.72" width="77.91" height="4.25" rx="2.13" fill="#d1d3d4"/><rect x="239.42" y="205.04" width="68.17" height="4.25" rx="2.13" fill="#d1d3d4"/><path d="M217.22,117.34v-2.76a6,6,0,0,0-6-6h0a6,6,0,0,0-6,6v2.76Z" fill="#fff"/><path d="M217.22,117.84H205.29a.5.5,0,0,1-.5-.5v-2.76a6.47,6.47,0,1,1,12.93,0v2.76A.5.5,0,0,1,217.22,117.84Zm-11.43-1h10.93v-2.26a5.47,5.47,0,1,0-10.93,0Z" fill="#d1d3d4"/><circle cx="211.25" cy="104.36" r="4.25" fill="#fff"/><path d="M211.25,109.11a4.76,4.76,0,1,1,4.76-4.75A4.75,4.75,0,0,1,211.25,109.11Zm0-8.51a3.76,3.76,0,1,0,3.76,3.76A3.76,3.76,0,0,0,211.25,100.6Z" fill="#d1d3d4"/><polygon points="218.06 149.47 202.98 149.47 202.98 138.65 210.52 134.31 218.06 138.65 218.06 149.47" fill="#fff"/><path d="M218.06,150H203a.5.5,0,0,1-.5-.5V138.65a.5.5,0,0,1,.25-.43l7.54-4.34a.5.5,0,0,1,.5,0l7.54,4.34a.48.48,0,0,1,.25.43v10.81A.5.5,0,0,1,218.06,150Zm-14.58-1h14.08v-10l-7-4.05-7,4.05Z" fill="#d1d3d4"/><rect x="207.9" y="141.89" width="5.25" height="7.58" fill="#fff"/><path d="M213.15,150H207.9a.5.5,0,0,1-.5-.5v-7.57a.5.5,0,0,1,.5-.5h5.25a.5.5,0,0,1,.5.5v7.57A.5.5,0,0,1,213.15,150Zm-4.75-1h4.25v-6.57H208.4Z" fill="#d1d3d4"/><polyline points="200.65 139.92 210.52 134.31 220.32 139.92" fill="#fff"/><path d="M220.32,140.42a.5.5,0,0,1-.24-.06l-9.56-5.47-9.62,5.47a.5.5,0,0,1-.68-.19.49.49,0,0,1,.18-.68l9.88-5.61a.48.48,0,0,1,.49,0l9.8,5.61a.5.5,0,0,1-.25.93Z" fill="#d1d3d4"/><rect x="201.67" y="171.7" width="17.87" height="9.88" rx="1.43" fill="#fff"/><path d="M218.12,182.08h-15a1.93,1.93,0,0,1-1.93-1.93v-7a1.94,1.94,0,0,1,1.93-1.93h15a1.94,1.94,0,0,1,1.93,1.93v7A1.93,1.93,0,0,1,218.12,182.08Zm-15-9.88a.93.93,0,0,0-.93.93v7a.93.93,0,0,0,.93.93h15a.93.93,0,0,0,.93-.93v-7a.93.93,0,0,0-.93-.93Z" fill="#d1d3d4"/><path d="M208.77,169h4.05a1.72,1.72,0,0,1,1.72,1.72v1a0,0,0,0,1,0,0h-7.48a0,0,0,0,1,0,0v-1A1.72,1.72,0,0,1,208.77,169Z" fill="#fff"/><path d="M214.53,172.2h-7.48a.5.5,0,0,1-.5-.5v-1a2.21,2.21,0,0,1,2.22-2.22h4a2.21,2.21,0,0,1,2.21,2.22v1A.5.5,0,0,1,214.53,172.2Zm-7-1H214v-.49a1.22,1.22,0,0,0-1.21-1.22h-4a1.22,1.22,0,0,0-1.22,1.22Z" fill="#d1d3d4"/><rect x="205.65" y="200.31" width="12.86" height="14.97" fill="#fff"/><path d="M218.51,215.79H205.65a.5.5,0,0,1-.5-.5v-15a.5.5,0,0,1,.5-.5h12.86a.5.5,0,0,1,.5.5v15A.5.5,0,0,1,218.51,215.79Zm-12.36-1H218v-14H206.15Z" fill="#d1d3d4"/><rect x="202.47" y="198.12" width="12.86" height="14.97" fill="#fff"/><path d="M215.33,213.59H202.47a.5.5,0,0,1-.5-.5v-15a.5.5,0,0,1,.5-.5h12.86a.5.5,0,0,1,.5.5v15A.5.5,0,0,1,215.33,213.59Zm-12.36-1h11.86v-14H203Z" fill="#d1d3d4"/><path d="M212.08,202.44h-6.9a.5.5,0,0,1-.5-.5.5.5,0,0,1,.5-.5h6.9a.5.5,0,0,1,.5.5A.51.51,0,0,1,212.08,202.44Z" fill="#d1d3d4"/><path d="M212.08,205h-6.9a.5.5,0,0,1,0-1h6.9a.5.5,0,0,1,0,1Z" fill="#d1d3d4"/><path d="M212.08,207.46h-6.9a.5.5,0,0,1-.5-.5.5.5,0,0,1,.5-.5h6.9a.51.51,0,0,1,.5.5A.5.5,0,0,1,212.08,207.46Z" fill="#d1d3d4"/><path d="M212.08,210h-6.9a.5.5,0,0,1-.5-.5.5.5,0,0,1,.5-.5h6.9a.5.5,0,0,1,.5.5A.51.51,0,0,1,212.08,210Z" fill="#d1d3d4"/></g></svg>