<svg xmlns="http://www.w3.org/2000/svg" xmlns:xlink="http://www.w3.org/1999/xlink" id="Layer_1" data-name="Layer 1" viewBox="0 0 403.13 315"><defs><linearGradient id="linear-gradient" x1="176.64" x2="229.57" y1="172.03" y2="366.49" gradientUnits="userSpaceOnUse"><stop offset=".01"/><stop offset=".13" stop-opacity=".69"/><stop offset=".25" stop-opacity=".32"/><stop offset="1" stop-opacity="0"/></linearGradient><linearGradient id="linear-gradient-2" x1="150.06" x2="169.81" y1="14.2" y2="297.3" xlink:href="#linear-gradient"/><linearGradient id="linear-gradient-3" x1="140.67" x2="178.58" y1="90.73" y2="131.28" xlink:href="#linear-gradient"/></defs><title>16</title><path fill="#189047" d="M401,274.79c-3.17,5.66-6.8,11.14-11.54,15.56a52.63,52.63,0,0,1-9,6.65c-2.42,1.47-4.93,2.79-7.46,4.05-15.7,7.85-32.21,13.95-49.63,16.29-18.16,2.45-36.61,1.37-54.72-.87-24.37-3-48.5-8.12-73-9.56-17.67-1.05-35.4-.19-53,1.14-16,1.2-32.35,2.76-48.18.51-2.8-.4-5.59-.92-8.36-1.58-24.18-5.78-45.14-22.49-57.94-43.8-11.16-18.57-23.71-53.89-13.94-74.72,10.41-22.18,38.61-37.24,57.08-51.77,7.48-5.88,14.88-12.36,19.14-20.87,4.74-9.49,5.09-20.47,7.06-30.9,6.38-33.77,31.95-63.24,64.49-74.32,45.76-15.59,101-5.25,128,37.59q2,3.15,3.72,6.42c7.67,14.23,15.48,29.72,21.41,44.62,6,15.16,19,28,31,38.57,13.21,11.7,27.57,22.11,40,34.63s23.06,27.63,26.52,44.93C416.44,236.92,410.76,257.39,401,274.79Z" opacity=".18" transform="translate(-10.65 -3.74)" style="isolation:isolate"/><path fill="#189047" d="M380.45,297c-2.42,1.47-4.93,2.79-7.46,4.05-15.7,7.85-32.21,13.95-49.63,16.29-18.16,2.45-36.61,1.37-54.72-.87-24.37-3-48.5-8.12-73-9.56-17.67-1.05-35.4-.19-53,1.14-16,1.2-32.35,2.76-48.18.51L90.52,257.4l200.39-47.08Z" opacity=".18" transform="translate(-10.65 -3.74)" style="isolation:isolate"/><path fill="#fff" d="M88.34,237.94,212,181.71a11.44,11.44,0,0,1,8.78-.92l70.64,9.59c4,1.21,3,17.68-.5,19.94L176.06,283.75a16.93,16.93,0,0,1-15.38,1.48L90.52,257.39C86.67,255.87,84.71,239.93,88.34,237.94Z" transform="translate(-10.65 -3.74)"/><path fill="url(#linear-gradient)" d="M88.34,237.94,212,181.71a11.44,11.44,0,0,1,8.78-.92l70.64,9.59c4,1.21,3,17.68-.5,19.94L176.06,283.75a16.93,16.93,0,0,1-15.38,1.48L90.52,257.39C86.67,255.87,84.71,239.93,88.34,237.94Z" transform="translate(-10.65 -3.74)"/><path fill="#fff" d="M90,236.52l122-66.85a11.44,11.44,0,0,1,8.78-.92l68.91,20.7a4.9,4.9,0,0,1,1.23,8.82L176.06,271.71a17,17,0,0,1-15.38,1.47L90.52,245.35A4.89,4.89,0,0,1,90,236.52Z" transform="translate(-10.65 -3.74)"/><path fill="#189047" d="M96.77,235.49l113.75-62.32a10.66,10.66,0,0,1,8.18-.86L283,191.61a4.57,4.57,0,0,1,1.14,8.23L177,268.29a15.79,15.79,0,0,1-14.33,1.38l-65.41-26A4.56,4.56,0,0,1,96.77,235.49Z" opacity=".52" transform="translate(-10.65 -3.74)" style="isolation:isolate"/><polygon fill="#fff" points="184.87 182.04 200.04 173.64 262.57 197.72 245.79 207.07 184.87 182.04"/><polygon fill="#fff" points="164.37 194.27 179.54 185.87 242.07 209.96 225.29 219.31 164.37 194.27"/><polygon fill="#fff" points="143.87 206.51 159.04 198.11 221.58 222.19 204.8 231.54 143.87 206.51"/><polygon fill="#fff" points="123.37 218.74 138.55 210.34 201.08 234.43 184.3 243.78 123.37 218.74"/><polygon fill="#fff" points="102.88 230.98 118.05 222.58 180.58 246.66 163.8 256.01 102.88 230.98"/><path fill="#ffbbab" d="M131.82,108.66s-6.67,1.06-9.3,3.88-16.89,25.52-16.89,25.52-5.35,5.64,0,7.47,6.9,1.26,7.18,0,.84-3.24.84-3.24.57-.28,1.27-1.69a5.5,5.5,0,0,0,.7-2.68,9.71,9.71,0,0,0-.56-1.83l12-14.92,4-3.1Z" transform="translate(-10.65 -3.74)"/><path fill="#ffbbab" d="M176.12,97.89A2.74,2.74,0,0,1,176,99.2a3.71,3.71,0,0,1-1.09,1.07,20.48,20.48,0,0,0-2.58,3.25c-.88,1.09-2.22,2-3.57,1.69a6.1,6.1,0,0,0-1.17-.3,2.27,2.27,0,0,0-1.86,1.31,7,7,0,0,1-1.33,2c-1.18,1-2.91.53-4.35.06a3.64,3.64,0,0,1-2.1-1.31,3.22,3.22,0,0,1-.35-1.47c0-1.22.07-2.44.07-3.65,0-3.91-1.2-7.84-.45-11.68a11,11,0,0,1,8.49-8.65,9.66,9.66,0,0,1,9.61,4.45C177.39,89.19,175.94,94.18,176.12,97.89Z" transform="translate(-10.65 -3.74)"/><path fill="#ffbbab" d="M174.89,124s6.76,7.32,9.15,7.6,21-20.13,21-20.13a3.46,3.46,0,0,0,2.85-2.29,8.54,8.54,0,0,0,.42-3.73,3.88,3.88,0,0,0-.18-1.08,4.17,4.17,0,0,0-1.14-1.47,6.67,6.67,0,0,0-1.77-1.31,2.25,2.25,0,0,0-2.11,0,3.2,3.2,0,0,0-1,1.19c-.72,1.23-1.45,2.71-.86,4a1.69,1.69,0,0,1,.25.7,1.22,1.22,0,0,1-.42.78,62.23,62.23,0,0,1-16.6,12.87,1.34,1.34,0,0,1-.61.2,1.32,1.32,0,0,1-.76-.32c-1.34-.93-2.65-1.89-3.95-2.87A18.43,18.43,0,0,0,174.89,124Z" transform="translate(-10.65 -3.74)"/><path fill="#189047" d="M153.94,105.87s0,0,0,0l-.69,1.28q-2.55,4.85-5.12,9.68c-.9,1.69-2.11,5.57-3.86,6.49a4.25,4.25,0,0,1-2.6.27c-2.6-.35-5.82-2-7.72-2.49a4.72,4.72,0,0,0-2.07-.21,4.86,4.86,0,0,0-2.44,1.83q-4.63,5.36-9.78,10.24a8.8,8.8,0,0,1-2.36,1.77c-1.93.86-4,.27-6-.73A23.69,23.69,0,0,1,109,132.7a2.41,2.41,0,0,1-1.06-1.06c-.33-.86.37-1.74,1-2.42a44.09,44.09,0,0,0,6.34-8.87c1.61-3,3-6.23,5.56-8.39,5.05-4.21,13.55-3.62,19.84-4.41,1.09-.14,6.9-.28,10.47-.8,1.44-.21,2.51-.48,2.77-.83Z" transform="translate(-10.65 -3.74)"/><path fill="#282328" d="M165,157.65s18.63,1.53,20.88,6.46,4.51,35.33,4.51,35.33L179.82,203l-2.39-26.89S147.2,175,143.52,171a19.76,19.76,0,0,1-4.58-9Z" transform="translate(-10.65 -3.74)"/><path fill="#473f47" d="M163.81,161.23s-2.43,27.23-5.53,29.49-21.49,28.81-21.49,28.81L127,214.09l15.24-28.72,1.93-22.18Z" transform="translate(-10.65 -3.74)"/><path fill="#189047" d="M171.37,116.59s0,.09,0,.14c-.56,3.77-1.13,7.55-1.69,11.31l-.12.8q-1.36,9.09-2.71,18.17c-.63,4.18-1.25,8.36-2.25,12.45a4,4,0,0,1-.78,1.78,3.7,3.7,0,0,1-1.87.94c-4.52,1.21-9.27,1.07-14,.91a35.61,35.61,0,0,1-9-1.07c-1.13-.34-2.37-1-2.62-2.1a3.53,3.53,0,0,1,0-1.17c.54-4.24,2-8.35,2.31-12.62.12-1.88,0-3.78.18-5.66.15-1.56.48-3.1.75-4.64.15-.8.28-1.6.36-2.41.17-1.69.13-3.39.4-5.07a26.23,26.23,0,0,1,1.33-4.71c0-.07,0-.13.07-.2,1-2.78,2-5.55,3.07-8.27a22.78,22.78,0,0,1,3.15-5.75,10.79,10.79,0,0,1,1.62-1.62,9.15,9.15,0,0,1,1.57-1,7.5,7.5,0,0,1,2.25-.77,4.6,4.6,0,0,1,.52-.06s0,0,0,0a14.46,14.46,0,0,1,3.41.17c3.14.41,7.68.47,10.83,2.22a6.64,6.64,0,0,1,2.94,3A9.26,9.26,0,0,1,171.37,116.59Z" transform="translate(-10.65 -3.74)"/><path fill="#189047" d="M204.16,113.82c.07,1.11-.8,2-1.62,2.8L186.89,131.4c-.23.22-.47.44-.72.65a5,5,0,0,1-1.45.91,4.39,4.39,0,0,1-1.29.24,9.4,9.4,0,0,1-2.1-.24A30.82,30.82,0,0,1,169.66,128c-5-3.65-7.82-9.07-4.92-16.27a11.34,11.34,0,0,1,.88-1.81,2.8,2.8,0,0,1,2.54-1.65,5.44,5.44,0,0,1,2.83,1.3c2.51,1.9,4.91,3.92,7.3,6,.7.59,1.46,1.25,2.25,1.87a15.14,15.14,0,0,0,3.71,2.26,1.74,1.74,0,0,0,.95.15,2,2,0,0,0,.73-.41q6.65-5.11,13.33-10.15a1.72,1.72,0,0,1,1.4-.5,1.69,1.69,0,0,1,.8.7l1.76,2.37a7.5,7.5,0,0,1,.59.88A2.5,2.5,0,0,1,204.16,113.82Z" transform="translate(-10.65 -3.74)"/><path fill="url(#linear-gradient-2)" d="M155.93,124.59a5.19,5.19,0,0,0-2.12,1.89c-1.44,2.09-2.48,4.64-4.48,6.28-2.66,2.17-6.44,2.15-9.77,3.07.15-.8.28-1.6.36-2.41.17-1.69.13-3.39.4-5.07a26.23,26.23,0,0,1,1.33-4.71c-2.6-.35-5.82-2-7.72-2.49a4.72,4.72,0,0,0-2.07-.21,4.86,4.86,0,0,0-2.44,1.83q-4.63,5.36-9.78,10.24a8.8,8.8,0,0,1-2.36,1.77c-1.93.86-4,.27-6-.73a.53.53,0,0,1,0-.18,1.34,1.34,0,0,1,.39-.9,118.62,118.62,0,0,1,16.63-17c5.46-4.68,12.52-6.34,19.43-7.75l1.86-.37c1.22-.23,2.44-.44,3.67-.6a24.82,24.82,0,0,1,7.55,0,9.39,9.39,0,0,1,4.84,2.71c2.08,2,3.8,4.66,5.75,6.63l.53.52a121.38,121.38,0,0,0,13.51,10.38,1.85,1.85,0,0,0,1.16.45,1.88,1.88,0,0,0,.94-.48A144.56,144.56,0,0,0,201,115.26a23.55,23.55,0,0,1,2.47-2.32,1.55,1.55,0,0,1,.32-.2,2.5,2.5,0,0,1,.35,1.08c.07,1.11-.8,2-1.62,2.8L186.89,131.4c-.23.22-.47.44-.72.65l-.16.08a17.54,17.54,0,0,1-2.58,1.07,9.4,9.4,0,0,1-2.1-.24A30.82,30.82,0,0,1,169.66,128l-.12.8a4.92,4.92,0,0,1-.52-.41c-.64-.57-1.13-1.28-1.75-1.87-2-1.9-5-2.25-7.72-2.43-5.5-.35-4.9,4.86-5.64,9.24q-1.26,7.51-1.79,15.12c-.26,3.64-.39,7.36-1.66,10.78a4.91,4.91,0,0,1-1.94,2.71,5.15,5.15,0,0,1-2.23.53,27,27,0,0,1-7.5-.58,3,3,0,0,1-2.32-1.46,3,3,0,0,1,0-1.72l4.34-23.65" transform="translate(-10.65 -3.74)"/><path fill="#ffbbab" d="M126.23,217.2c-.92.84-2.07,1.56-2.48,2.73a4.09,4.09,0,0,0-.1,2c.4,2.43,1.93,4.51,3.4,6.49l1.7,2.27,2.83,3.79A9.6,9.6,0,0,0,134,237a9.49,9.49,0,0,0,5,1,5.27,5.27,0,0,0,2.2-.29,1.8,1.8,0,0,0,1.16-1.72c-.1-1-1.19-1.5-2-2-2.55-1.66-3.48-4.88-4.22-7.83-.51-2-1-4.19-.48-6.22.18-.69.48-1.35.63-2.05a2.53,2.53,0,0,0-.33-2,3.17,3.17,0,0,0-1.3-.88,22.22,22.22,0,0,0-4.72-1.45C128.16,213.07,127.38,216.14,126.23,217.2Z" transform="translate(-10.65 -3.74)"/><path fill="#ffbbab" d="M182.83,205.73c-.05,1.39.31,3,1.52,3.67a3.85,3.85,0,0,0,1.93.43,10.81,10.81,0,0,0,4.49-.88c2.49-1.08,4.52-3.06,7-4.09a6.84,6.84,0,0,0,2-1,1.7,1.7,0,0,0,.56-2c-.25-.43-.74-.67-1.06-1s-.46-1-.89-1.3c-.74-.55-1.75,0-2.54.48a12.64,12.64,0,0,1-4.87,1.69,1.79,1.79,0,0,1-.73,0c-.92-.29-.89-1.71-1.68-2.26-1.14-.77-4.11.86-4.9,1.81C182.77,202.33,182.86,204.34,182.83,205.73Z" transform="translate(-10.65 -3.74)"/><path fill="#fc682d" d="M178.9,89.82c-1.51,2.11-4.13,3.28-5.39,5.54s-.94,5.71-2.92,7.62a5.87,5.87,0,0,1-2.87,1.37c-1.21.28-2.52.38-3.71.69a3.43,3.43,0,0,0-2,1.17c-.61.86,0,2.07.06,3a12.06,12.06,0,0,1-.22,4.36,7,7,0,0,1-3.78,4.23,11.66,11.66,0,0,1-5.7,1,2.27,2.27,0,0,0-1.27.17,2.16,2.16,0,0,0-.75,1.63c-.44,3.15-1.24,6.51-3.66,8.57a9.8,9.8,0,0,1-3.61,1.83,14.78,14.78,0,0,1-13.69-2.74,13,13,0,0,1-2.61-3.11,12.61,12.61,0,0,1-1.38-10.07c1-3.12,3.25-6.14,2.49-9.32-.28-1.15-.94-2.17-1.29-3.3a12,12,0,0,1-.06-5.19,10.71,10.71,0,0,1,1.35-4.41A8.45,8.45,0,0,1,131.34,90c5.71-2.83,12.67-2.39,18.25-5.49,4.88-2.72,8.38-8,13.84-9.21a13.25,13.25,0,0,1,4.86-.17c1.59.27,2.48,1.37,3.94,1.84a17,17,0,0,0,2.67.21,5.42,5.42,0,0,1,3.35,2.41,10.36,10.36,0,0,1,1.6,3.35A8.09,8.09,0,0,1,178.9,89.82Z" transform="translate(-10.65 -3.74)"/><path fill="url(#linear-gradient-3)" d="M178.9,89.82c-1.51,2.11-4.13,3.28-5.39,5.54s-.94,5.71-2.92,7.62a5.87,5.87,0,0,1-2.87,1.37c-1.21.28-2.52.38-3.71.69a3.43,3.43,0,0,0-2,1.17c-.61.86,0,2.07.06,3a12.06,12.06,0,0,1-.22,4.36,7,7,0,0,1-3.78,4.23,11.66,11.66,0,0,1-5.7,1,2.27,2.27,0,0,0-1.27.17,2.16,2.16,0,0,0-.75,1.63c-.44,3.15-1.24,6.51-3.66,8.57a9.8,9.8,0,0,1-3.61,1.83,14.78,14.78,0,0,1-13.69-2.74,13,13,0,0,1-2.61-3.11,18.91,18.91,0,0,0,5.78,1.59,17.36,17.36,0,0,0,6.57-1,15.82,15.82,0,0,0,6.43-3.55,7.68,7.68,0,0,0,2.38-6.71,8.84,8.84,0,0,0,8-8.43,27.89,27.89,0,0,1-5,.61A26.43,26.43,0,0,0,163,99.46a6.32,6.32,0,0,0-.94,2,6.08,6.08,0,0,0,5.22-1.58,7.07,7.07,0,0,0,2.14-5.07,2.48,2.48,0,0,1,.25-1.38,2.17,2.17,0,0,1,.89-.62,18,18,0,0,0,7.11-6.35,24.85,24.85,0,0,1,2.2-3.51A8.09,8.09,0,0,1,178.9,89.82Z" transform="translate(-10.65 -3.74)"/><polygon fill="none" stroke="#fff" stroke-miterlimit="10" points="229.89 65.76 181.05 87.2 181.05 46.68 229.89 25.24 229.89 65.76"/><path fill="#fff" d="M234.88,58.39a5.93,5.93,0,0,1-1.11,3.28,6.1,6.1,0,0,1-2.69,2.24L205,74.31c-2.1.84-3.8-.28-3.8-2.5a5.93,5.93,0,0,1,1.11-3.28A6.19,6.19,0,0,1,205,66.28l.89-.35a7.17,7.17,0,0,1-.28-2,11.83,11.83,0,0,1,2.19-6.47A12.23,12.23,0,0,1,213.09,53l2.22-.88c2.89-1.15,5.4-.42,6.65,1.61a6.68,6.68,0,0,1,2-1.33l.57-.23c2.49-1,4.51.33,4.51,3v.24a6,6,0,0,1-.17,1.38l2.16-.86C233.18,55.05,234.88,56.17,234.88,58.39Z" transform="translate(-10.65 -3.74)"/><path fill="#189047" d="M269.93,150.15a7.58,7.58,0,1,1-2.71-5.81A7.58,7.58,0,0,1,269.93,150.15Z" opacity=".82" transform="translate(-10.65 -3.74)" style="isolation:isolate"/><path fill="#fff" d="M267.65,146.86a7.57,7.57,0,0,1-12.44,5.81,7.58,7.58,0,0,1,12-8.33A7.49,7.49,0,0,1,267.65,146.86Z" opacity=".55" transform="translate(-10.65 -3.74)" style="isolation:isolate"/><path fill="#189047" d="M261.21,125.55a3.79,3.79,0,1,1-3.78-3.79,3.79,3.79,0,0,1,3.78,3.79Z" opacity=".82" transform="translate(-10.65 -3.74)" style="isolation:isolate"/><path fill="#fff" d="M260.07,123.91a3.79,3.79,0,0,1-6.22,2.9,3.8,3.8,0,0,1,3.58-5,3.74,3.74,0,0,1,2.43.89A3.7,3.7,0,0,1,260.07,123.91Z" opacity=".55" transform="translate(-10.65 -3.74)" style="isolation:isolate"/><path fill="#189047" d="M295.57,109.24a3.79,3.79,0,1,1-1.36-2.91A3.79,3.79,0,0,1,295.57,109.24Z" opacity=".82" transform="translate(-10.65 -3.74)" style="isolation:isolate"/><path fill="#fff" d="M294.42,107.59a3.79,3.79,0,0,1-6.22,2.91,3.79,3.79,0,0,1,6-4.17A3.79,3.79,0,0,1,294.42,107.59Z" opacity=".55" transform="translate(-10.65 -3.74)" style="isolation:isolate"/><g opacity=".82" style="isolation:isolate"><polygon fill="#189047" points="258.68 144.12 257.89 143.83 265.59 122.21 249.77 121.41 249.81 120.58 266.76 121.43 258.68 144.12"/></g><polygon fill="#189047" points="277.17 122.23 266.17 122.23 266.17 121.4 276.53 121.4 280.16 107.73 280.97 107.95 277.17 122.23"/></svg>