<svg xmlns="http://www.w3.org/2000/svg" xmlns:xlink="http://www.w3.org/1999/xlink" id="Layer_1" data-name="Layer 1" viewBox="0 0 512.02 480.41"><defs><linearGradient id="linear-gradient" x1="75.88" x2="126.44" y1="161.41" y2="161.41" gradientUnits="userSpaceOnUse"><stop offset=".01"/><stop offset=".13" stop-opacity=".69"/><stop offset="1" stop-opacity="0"/></linearGradient><linearGradient id="linear-gradient-2" x1="145.63" x2="72.8" y1="269.72" y2="430.15" xlink:href="#linear-gradient"/><linearGradient id="linear-gradient-3" x1="95.25" x2="52.51" y1="367.14" y2="541.29" xlink:href="#linear-gradient"/><linearGradient id="linear-gradient-4" x1="162.03" x2="119.28" y1="383.53" y2="557.68" xlink:href="#linear-gradient"/><linearGradient id="linear-gradient-5" x1="3437.59" x2="3786.35" y1="-975.57" y2="-1077.03" gradientTransform="translate(-329.23 3857.26) rotate(-65.22)" xlink:href="#linear-gradient"/><linearGradient id="linear-gradient-6" x1="3373.68" x2="3686.91" y1="-953.9" y2="-1051.55" gradientTransform="translate(-329.23 3857.26) rotate(-65.22)" xlink:href="#linear-gradient"/><linearGradient id="linear-gradient-7" x1="366.03" x2="521.98" y1="281.74" y2="383.07" xlink:href="#linear-gradient"/><linearGradient id="linear-gradient-8" x1="317.37" x2="455.9" y1="274.09" y2="408.66" xlink:href="#linear-gradient"/><linearGradient id="linear-gradient-9" x1="366.33" x2="384.54" y1="202.28" y2="202.28" xlink:href="#linear-gradient"/><linearGradient id="linear-gradient-10" x1="351.79" x2="310.63" y1="351.77" y2="585.3" xlink:href="#linear-gradient"/><linearGradient id="linear-gradient-11" x1="461.23" x2="420.07" y1="371.06" y2="604.59" xlink:href="#linear-gradient"/><linearGradient id="linear-gradient-12" x1="329.06" x2="394.68" y1="267.51" y2="251.15" xlink:href="#linear-gradient"/><linearGradient id="linear-gradient-13" x1="345.27" x2="344.47" y1="220.53" y2="274.36" xlink:href="#linear-gradient"/><linearGradient id="linear-gradient-14" x1="356.39" x2="374.95" y1="241.68" y2="223.91" xlink:href="#linear-gradient"/><linearGradient id="linear-gradient-15" x1="264.36" x2="281.51" y1="371.37" y2="354.95" gradientTransform="translate(111.44 -141.42) rotate(2.78)" xlink:href="#linear-gradient"/><linearGradient id="linear-gradient-16" x1="345.2" x2="356.48" y1="234.34" y2="227.28" xlink:href="#linear-gradient"/><linearGradient id="linear-gradient-17" x1="336.68" x2="339.71" y1="240.45" y2="219.74" xlink:href="#linear-gradient"/><linearGradient id="linear-gradient-18" x1="278.85" x2="378.06" y1="289.11" y2="240.56" xlink:href="#linear-gradient"/></defs><title>credit card 3</title><path fill="#189047" d="M146.75,53.4c-19.76,20-34.67,44.73-56.58,62.33-16.13,13-35.68,21.72-49.84,36.81-20.64,22-26.57,53.69-29.78,83.67-3.1,29-4.49,58.22-2.81,87.33,2.36,40.63,12.52,84,43.46,110.49,10.83,9.26,23.64,15.9,36.7,21.58A322.65,322.65,0,0,0,200,481.93c20,1,40.15.16,60.22-.7l77.25-3.32c22-.94,43.92-1.88,65.84-3.4,27.43-1.89,56.25-5.21,78.46-21.4,29.1-21.22,40.15-60.65,36.66-96.5s-19.18-69.2-34.6-101.74-31.07-65.93-34.5-101.78c-.72-7.56-.93-15.33-3.77-22.38-3.06-7.57-8.89-13.61-14.09-19.91C417.15,93.47,406.93,73.16,393.73,55,338-21.72,208.38-8.9,146.75,53.4Z" opacity=".42" transform="translate(-7.02 -1.98)" style="isolation:isolate"/><ellipse cx="260.12" cy="420.52" fill="#189047" opacity=".42" rx="220.59" ry="26.91" style="isolation:isolate"/><path fill="#ad7862" d="M174.66,391.2l1.21,12.71s-4.87,7.37-11.22,7.84-8.52-2.58-8.52-2.58l1-18.7" transform="translate(-7.02 -1.98)"/><path fill="#ad7862" d="M86.13,392.55l-1.25,13.06s5,7.56,11.53,8.05,8.75-2.65,8.75-2.65l-1.07-19.21" transform="translate(-7.02 -1.98)"/><path fill="#189047" d="M101.77,107s-25.26,12.2-25.83,16.2S78.8,225.56,78.8,225.56s8.2,10.63,33.31,10.63c25.72,0,33.9-7.18,33.49-10.78C144.18,213,150.85,124,150.28,119.79s-23.87-12.71-23.87-12.71Z" transform="translate(-7.02 -1.98)"/><path fill="url(#linear-gradient)" d="M117.48,169.43s-30.42,5.45-32.3,3.57c-1.7-1.7-9-51.28-9.24-49.78-.41,2.88,1.25,50.1,2.21,76.41,15.62-4.72,48.29-21.3,48.29-21.3A34.94,34.94,0,0,0,117.48,169.43Z" opacity=".58" transform="translate(-7.02 -1.98)"/><path fill="#bb826c" d="M105.72,169.79a70.39,70.39,0,0,1,6.87-4.59c2.64-1.41,14.65-2.64,16.8-2s1.21,1.89-1.34,2.38-4.74-.06-5.3,1.48,2.84,4.7,2.61,7.39-.15,2.51-6.28,4.61-11.93,4.93-13.5.18S103.67,170.48,105.72,169.79Z" transform="translate(-7.02 -1.98)"/><path fill="#bb826c" d="M101.85,91.76s-.19,8.81-.08,15.26c.08,4.81,1.73,14,12,14S125.17,109.3,125,107c-.13-1.64.66-5,0-10.25C124.31,91.16,102.42,87.85,101.85,91.76Z" transform="translate(-7.02 -1.98)"/><path fill="#f3fcff" d="M101.71,106.22a3.19,3.19,0,0,0-4,1.47c-1.54,2.57-1.63,7.73,0,14.78s3,8.85,3,8.85,6.71-9.5,11.43-9.88C112.11,121.44,102.81,119.61,101.71,106.22Z" transform="translate(-7.02 -1.98)"/><path fill="#f3fcff" d="M125.07,106.22a3.19,3.19,0,0,1,4,1.47c1.54,2.57,1.63,7.73,0,14.78s-3,8.85-3,8.85-6.71-9.5-11.43-9.88C114.67,121.44,124,119.61,125.07,106.22Z" transform="translate(-7.02 -1.98)"/><path fill="#525263" d="M78.8,225.56s-1.87,14.57,1.72,73.78c3.34,55.16,4.29,93.78,4.29,93.78s.36,4.51,9.86,4.64,12-6.14,12-6.14L116,250.17l38.71,144.35s11.4,6.56,20.29,1.64c6.3-3.5-29.37-170.75-29.37-170.75S115.11,242.14,78.8,225.56Z" transform="translate(-7.02 -1.98)"/><path fill="url(#linear-gradient-2)" d="M78.8,225.56s-1.87,14.57,1.72,73.78c3.34,55.16,4.29,93.78,4.29,93.78s.36,4.51,9.86,4.64,12-6.14,12-6.14L116,250.17l38.71,144.35s11.4,6.56,20.29,1.64c6.3-3.5-29.37-170.75-29.37-170.75S115.11,242.14,78.8,225.56Z" opacity=".58" transform="translate(-7.02 -1.98)"/><path fill="#189047" d="M80.64,118.65a34.86,34.86,0,0,0-9.15,9.15c-4,5.91-10.61,55.47-7.56,68.89,1.29,5.68,48-15.52,48-15.52s-1.1-9.5-6-12.74c0,0-22.93,4.92-24.64,3.21S80.64,118.65,80.64,118.65Z" transform="translate(-7.02 -1.98)"/><path fill="#bb826c" d="M132.82,60.65c.37,2,1.06,3.83,1.4,5.88.46,2.71.59,5.56,1.87,8,.56,1.09,1.34,2.2,1.16,3.41s-1.47,2.17-2.41,3.13c-2.89,3-1.84,7.74-2.73,11.53-1,4,1.87,13.11-10.46,9.28-3.51-1.09-20.6-5.89-21.82-16.48-1.52-13.24-9.64-30,6.38-35.59,6.61-2.31,17.36-5.77,23,.48,2.19,2.42,3.13,5.88,3.44,9.06C132.69,59.82,132.75,60.24,132.82,60.65Z" transform="translate(-7.02 -1.98)"/><path fill="#3f3d56" d="M124.08,39a8.52,8.52,0,0,1,6.55,2.52c1,1.15,1.7,2.76,3.15,3.24.69.23,1.45.15,2.15.36,2.13.62,2.67,3.43,2.29,5.61s-1.28,4.44-.59,6.54a7.73,7.73,0,0,1,.77,2.52c-.05,1.58-1.9,2.56-3.48,2.45s-3-.92-4.54-1.37c-2.66-.79-5.52-.45-8.28-.1a13.91,13.91,0,0,0-5.33,1.41,4.74,4.74,0,0,0-2.59,4.54,4.49,4.49,0,0,1,.19,2.22,5.22,5.22,0,0,1-1.07,1.29c-1.28,1.49-.83,3.73-.43,5.65.44,2.11-.27,7.8-3,5-1.85-1.9-.7-5-3.9-6.24-4.69-1.85-6.61,6.08-1.69,11.9s.31,9.54-2.88,10.52c-3,.91-6.62-13.5-7.1-15.2-1.86-6.67-5.73-18.07-2-24.5,1.14-1.95,2.6-3.81,3-6,.29-1.47.1-3,.59-4.44a6.72,6.72,0,0,1,4.35-3.86,24.82,24.82,0,0,1,6-.9,67.13,67.13,0,0,0,10.35-1.72A33.71,33.71,0,0,1,123.89,39Z" transform="translate(-7.02 -1.98)"/><path fill="#ad7862" d="M125.22,102.75s-12.48-4.6-18.13-7.19c0,0,11.75,11.16,17.82,11.08Z" transform="translate(-7.02 -1.98)"/><path fill="#189047" d="M150.28,119.79s14.38,63.62,15.27,71.81-9.59,12.29-14.28,11c-10.41-2.93-8.75-20.71-8.75-20.71Z" transform="translate(-7.02 -1.98)"/><path fill="#189047" d="M165.2,189.27l14.61,47.17-10,7.06s-21.1-30.11-22.77-39.08-2.28-21.24,6.54-21" transform="translate(-7.02 -1.98)"/><path fill="#bb826c" d="M184,247.88c-.79-2.06-1.89-4.06-2.49-6.17-.37-1.31-.31-2.64-1.21-3.74-2.9-3.53-8.07-1.32-9.36,2.42a11,11,0,0,0,.54,7.51c.94,2.39,2.33,4.56,3.46,6.86a14.36,14.36,0,0,1,1.8,7.38,33.9,33.9,0,0,0-.45,3.88,1.93,1.93,0,0,0,.34,1.18c.68.82,2,.34,2.88-.3C185.11,262.66,186.33,254.14,184,247.88Z" transform="translate(-7.02 -1.98)"/><polygon fill="#f3fcff" points="162.75 243.14 159.85 238.8 171.75 231.09 175.07 235.8 162.75 243.14"/><path fill="#f3fcff" d="M108,165.76l5.59,16.09-4.75,2.62s-7.36-14.84-7.71-15.57S108,165.76,108,165.76Z" transform="translate(-7.02 -1.98)"/><path fill="#525263" d="M67.14,407c-2.59.85-5.39,2.3-6.12,4.93s.93,5.3,3.19,6.68,5,1.67,7.65,1.82a94.62,94.62,0,0,0,30.87-3.31,7,7,0,0,0,3.44-1.74c1.16-1.31,1.19-3.25,1.16-5l-.13-7.92a1.9,1.9,0,0,0-.33-1.27,1.76,1.76,0,0,0-1.37-.44c-4.5-.09-8.26,1.08-12.64-.61-2.82-1.09-5.15-2.62-8-1.05-2.17,1.17-3.57,3.35-5.86,4.46C75.3,405.34,71,405.76,67.14,407Z" transform="translate(-7.02 -1.98)"/><path fill="#525263" d="M137.51,408.79c-2.6.85-5.4,2.3-6.13,4.93s.93,5.3,3.2,6.67,5,1.68,7.64,1.83a94.59,94.59,0,0,0,30.87-3.31,6.89,6.89,0,0,0,3.44-1.74c1.16-1.32,1.2-3.25,1.17-5l-.14-7.92a1.94,1.94,0,0,0-.32-1.28,1.84,1.84,0,0,0-1.38-.44c-4.5-.08-8.26,1.08-12.63-.6-2.82-1.09-5.15-2.62-8.06-1.05-2.16,1.17-3.57,3.35-5.86,4.46C145.66,407.09,141.34,407.52,137.51,408.79Z" transform="translate(-7.02 -1.98)"/><path fill="url(#linear-gradient-3)" d="M67.14,407c-2.59.85-5.39,2.3-6.12,4.93s.93,5.3,3.19,6.68,5,1.67,7.65,1.82a94.62,94.62,0,0,0,30.87-3.31,7,7,0,0,0,3.44-1.74c1.16-1.31,1.19-3.25,1.16-5l-.13-7.92a1.9,1.9,0,0,0-.33-1.27,1.76,1.76,0,0,0-1.37-.44c-4.5-.09-8.26,1.08-12.64-.61-2.82-1.09-5.15-2.62-8-1.05-2.17,1.17-3.57,3.35-5.86,4.46C75.3,405.34,71,405.76,67.14,407Z" opacity=".58" transform="translate(-7.02 -1.98)"/><path fill="url(#linear-gradient-4)" d="M137.51,408.79c-2.6.85-5.4,2.3-6.13,4.93s.93,5.3,3.2,6.67,5,1.68,7.64,1.83a94.59,94.59,0,0,0,30.87-3.31,6.89,6.89,0,0,0,3.44-1.74c1.16-1.32,1.2-3.25,1.17-5l-.14-7.92a1.94,1.94,0,0,0-.32-1.28,1.84,1.84,0,0,0-1.38-.44c-4.5-.08-8.26,1.08-12.63-.6-2.82-1.09-5.15-2.62-8.06-1.05-2.16,1.17-3.57,3.35-5.86,4.46C145.66,407.09,141.34,407.52,137.51,408.79Z" opacity=".58" transform="translate(-7.02 -1.98)"/><polygon fill="#189047" points="134.08 142.42 135.41 193.74 138.94 198.91 134.08 142.42"/><path fill="#f3fcff" d="M105.81,123.19s6.54,17.59,7.3,19,6.28-18.35,6.28-18.35,2.19-3.21-6.73-2.85A12,12,0,0,0,105.81,123.19Z" transform="translate(-7.02 -1.98)"/><path fill="#f3fcff" d="M145.52,224.56s-19,5.18-28.08,4.85-38.72-6.29-38.72-6.29-3.3,12.74-1.57,14,10.61.48,23.18,1,20.22,6.23,30.25,6,16-13.85,16-13.85Z" transform="translate(-7.02 -1.98)"/><rect width="154.71" height="238.41" x="169.43" y="70.43" fill="#189047" rx="13.55" transform="translate(15.02 402.96) rotate(-81.31)"/><rect width="154.71" height="238.41" x="168.72" y="75.03" fill="#189047" rx="13.55" transform="translate(9.88 406.16) rotate(-81.31)"/><path fill="url(#linear-gradient-5)" d="M373.56,149.16,354.28,275.32a13.26,13.26,0,0,1-.68,2.62,13.56,13.56,0,0,1-14.76,8.73L130,254.74A13.55,13.55,0,0,1,118.6,239.3l8.84-57.79,10.44-68.36a13.57,13.57,0,0,1,15.44-11.36l208.89,31.94A13.55,13.55,0,0,1,373.56,149.16Z" opacity=".58" transform="translate(-7.02 -1.98)"/><path fill="url(#linear-gradient-6)" d="M362.43,220.15l-8.83,57.79a13.56,13.56,0,0,1-14.76,8.73L130,254.74A13.55,13.55,0,0,1,118.6,239.3l8.84-57.79a13.55,13.55,0,0,1,14.76-8.73l208.89,31.94A13.54,13.54,0,0,1,362.43,220.15Z" opacity=".58" transform="translate(-7.02 -1.98)"/><rect width="42.48" height="48.19" x="148.53" y="140.62" fill="#fdb523" rx="7.51" transform="translate(-25.72 305.67) rotate(-81.31)"/><path fill="#efa92b" d="M192.85,172.14l-.68,4.45-13.68-2.09a6.19,6.19,0,0,1-3.67,3.85l-.48.15-.49-.06c-1.13-.14-11-1.37-13.62-2.1s-3.95-4-4.45-6.11l-10.89-1.67.68-4.45,14.18,2.17L160,168c.24,1.88,1,3.8,1.52,4.05,1.58.44,7.88,1.32,12.17,1.86a2.9,2.9,0,0,0,.78-2.07l.15-2.46Z" transform="translate(-7.02 -1.98)"/><path fill="#efa92b" d="M194.12,163.83l.68-4.45-13.67-2.09a6.23,6.23,0,0,0-2.36-4.77l-.41-.29-.49-.09c-1.12-.2-11-2-13.62-2.07-2.84-.08-5,2.64-6.08,4.51l-10.89-1.66-.68,4.45,14.18,2.17.71-1.56c.79-1.71,2.13-3.31,2.67-3.4,1.63,0,7.91,1.09,12.17,1.86a3,3,0,0,1,.13,2.21l-.6,2.39Z" transform="translate(-7.02 -1.98)"/><rect width=".95" height="48.08" x="169.42" y="140.21" fill="#efa92b" transform="translate(-25.16 305.4) rotate(-81.31)"/><rect width=".95" height="48.08" x="167.17" y="154.94" fill="#efa92b" transform="translate(-41.63 315.68) rotate(-81.31)"/><rect width=".95" height="48.08" x="171.67" y="125.48" fill="#efa92b" transform="translate(-8.69 295.12) rotate(-81.31)"/><text fill="#189047" font-family="Roboto-Bold, Roboto" font-size="13.51" font-weight="700" transform="translate(203.75 164.06) rotate(8.69)">CREDIT CARD</text><rect width="42.2" height="15.5" x="138.03" y="215.36" fill="#189047" opacity=".32" rx="7.02" transform="translate(29.58 -23.99) rotate(8.94)"/><rect width="42.2" height="15.5" x="190.57" y="224.55" fill="#189047" opacity=".32" rx="7.02" transform="matrix(0.99, 0.16, -0.16, 0.99, 31.64, -32.04)"/><rect width="42.2" height="15.5" x="243.11" y="233.73" fill="#189047" opacity=".32" rx="7.02" transform="translate(33.71 -40.1) rotate(8.94)"/><rect width="42.2" height="15.5" x="295.65" y="242.92" fill="#189047" opacity=".32" rx="7.02" transform="translate(35.77 -48.15) rotate(8.94)"/><path fill="#f1dfce" d="M435.84,388.08l13.85,23.48a12.41,12.41,0,0,0,9.51-12.66l-12-22.55" transform="translate(-7.02 -1.98)"/><path fill="#f1dfce" d="M449.69,411.56s-4,16.92-9.53,18.9,7.78-.63,10.38-3.23S457,406.45,457,406.45" transform="translate(-7.02 -1.98)"/><path fill="#f1dfce" d="M342.87,393.87l-2.12,24.55a11.21,11.21,0,0,0,13.64-4.33l3-22.92" transform="translate(-7.02 -1.98)"/><path fill="#f1dfce" d="M340.75,418.42s-15,13.5-20.11,12,9.25.5,12.52-.06S353,420,353,420" transform="translate(-7.02 -1.98)"/><path fill="#525263" d="M354.49,413.29s3.39,3.42,3,6.29-1.89,15-1.89,15a3,3,0,0,1-2.17-.21c-1.1-.58-.84-13.26-3.12-9.87-4.3,6.38-2.89,8.8-12.64,10.24-2.71.4-28.73-2.52-13.41-6.08,0,0,9.57.75,13.69-3.37S349.11,412.22,354.49,413.29Z" transform="translate(-7.02 -1.98)"/><path fill="#f1dfce" d="M365.31,86.65c-.11,1.3-1.17,16.38,0,22.81s5.26,15.21,10.53,14,7.6-2.93,7.6,0a63.59,63.59,0,0,1-1.17,8.77s6.43,4.68,12.28,2.92,7-6.43,7-6.43-2.92-3.51-1.75-12.87,9.94-29.82-2.34-39.77C390,70.09,366.8,69,365.31,86.65Z" transform="translate(-7.02 -1.98)"/><path fill="#3f3d56" d="M364.73,72.62s-8.38,6.94-3,17.13c1.6,3,7.62-4.85,15.23-3.1s5.85,21.06,7.6,20.47-.58-7,2.92-10.53,7,1.76,6.44,7-3,5.85-3,5.85.44,5.65,1.35,7.48c.68,1.35,10.2-2.72,10.2-2.72s7.78-21.14,6-28.15-9.94-17-18.72-17S370.57,66.18,364.73,72.62Z" transform="translate(-7.02 -1.98)"/><path fill="#f1dfce" d="M334.54,171.21s-3-11.58-6.86-14.13-5.26-4.47-6.14-3.75.69,3.19.69,3.19,2.9,2.79.91,3.11S307,150.93,303,151.25s-1.6,6.23-2.64,8.86,8.86,9.66,12.85,11.89,9.34,6.15,11.89,7.59S334.61,174.65,334.54,171.21Z" transform="translate(-7.02 -1.98)"/><path fill="#189047" d="M427.44,249.34l-3.78,56.79L458.23,393s1.3,8.32-15.54,10.85l-46-92.15-9.2-70.59" transform="translate(-7.02 -1.98)"/><path fill="url(#linear-gradient-7)" d="M427.44,249.34l-3.78,56.79L458.23,393s1.3,8.32-15.54,10.85l-46-92.15-9.2-70.59" opacity=".58" transform="translate(-7.02 -1.98)"/><path fill="#189047" d="M365.53,243.67,337.33,409s5.61,6.61,22.58,2.7L376,337.83l37.38-86S389,229.31,365.53,243.67Z" transform="translate(-7.02 -1.98)"/><path fill="url(#linear-gradient-8)" d="M365.53,243.67,337.33,409s5.61,6.61,22.58,2.7L376,337.83l37.38-86S389,229.31,365.53,243.67Z" opacity=".58" transform="translate(-7.02 -1.98)"/><path fill="#fff" d="M395.08,156.88s-9.09,46.57-12.29,54.45-15.57,22.16-25.44,14.35a71.07,71.07,0,0,1-8.05-8.1L347.88,216c-11.29-13.06-25.65-32.82-25.65-32.82.66-13.34,12.31-11.92,12.31-11.92L356.62,198s13.4-53.15,20.62-62.43c4.41-5.64,15.5-6.75,15.5-6.75C400,130.64,395.08,156.88,395.08,156.88Z" transform="translate(-7.02 -1.98)"/><path fill="#f3fcff" d="M406.94,132.5c10.21,12.77,19.32,104,21.94,109.82,0,0-17.16,7.1-43.6,8.73a69.5,69.5,0,0,1-21.58-2.33s11.79-75.75,12.16-86.45,5.24-30.06,5.24-30.06S398.84,122.37,406.94,132.5Z" transform="translate(-7.02 -1.98)"/><path fill="#f3fcff" d="M364.55,249s-4.18,10.67-3.14,11,11.44-5.32,14.65-3.4,12.65,11.76,25.27,14.39,25.56-7.26,26.11-14.55,1.44-14.1,1.44-14.1S372.4,252.62,364.55,249Z" transform="translate(-7.02 -1.98)"/><path fill="url(#linear-gradient-9)" d="M384.54,173s-9.42,44.59-11.93,49.61-5.82,4.82-5.82,4.82l-.46,4.18,8.16-2.72Z" opacity=".58" transform="translate(-7.02 -1.98)"/><path fill="#3f3d56" d="M401.47,76.6s7.53-11.13,16-3.68-1.18,20.23.94,31.6,10.82,26.3,6.11,30.36-1.17,0-1.17,0-1.68-11.09-9.66-13.28-12.92-8.56-13.16-19.25" transform="translate(-7.02 -1.98)"/><path fill="#525263" d="M460.63,397.53s-2.41,1.35-3.61,6.85-4.33,19.19-7.48,20.72-4.33-.09-5.17,0-7.08,6.58-6.75,7.21.89,1,5.55,0,13.47-4.24,13.69-5.59,2.49-13.33,4.6-13.51.38,12.79,1.13,12.88,1.85.27,2-1.17,2.24-16.85,1.48-20.45S463.57,398.7,460.63,397.53Z" transform="translate(-7.02 -1.98)"/><path fill="url(#linear-gradient-10)" d="M354.49,413.29s3.39,3.42,3,6.29-1.89,15-1.89,15a3,3,0,0,1-2.17-.21c-1.1-.58-.84-13.26-3.12-9.87-4.3,6.38-2.89,8.8-12.64,10.24-2.71.4-28.73-2.52-13.41-6.08,0,0,9.57.75,13.69-3.37S349.11,412.22,354.49,413.29Z" opacity=".58" transform="translate(-7.02 -1.98)"/><path fill="url(#linear-gradient-11)" d="M460.63,397.53s-2.41,1.35-3.61,6.85-4.33,19.19-7.48,20.72-4.33-.09-5.17,0-7.08,6.58-6.75,7.21.89,1,5.55,0,13.47-4.24,13.69-5.59,2.49-13.33,4.6-13.51.38,12.79,1.13,12.88,1.85.27,2-1.17,2.24-16.85,1.48-20.45S463.57,398.7,460.63,397.53Z" opacity=".58" transform="translate(-7.02 -1.98)"/><circle cx="383.21" cy="108.73" r="3.06" fill="#189047"/><polygon fill="#189047" points="324.24 227.89 373.58 233.96 369.36 296.24 361.71 300.19 319.49 288.32 324.24 227.89"/><polygon fill="url(#linear-gradient-12)" points="324.24 227.89 373.58 233.96 369.36 296.24 361.71 300.19 319.49 288.32 324.24 227.89" opacity=".58"/><polygon fill="#189047" points="316.59 231.85 365.93 237.92 361.71 300.19 311.84 292.28 316.59 231.85"/><polygon fill="#189047" points="316.59 231.85 324.24 227.89 373.58 233.96 365.93 237.92 316.59 231.85"/><polygon fill="url(#linear-gradient-13)" points="316.59 231.85 324.24 227.89 373.58 233.96 365.93 237.92 316.59 231.85" opacity=".58"/><path fill="#189047" d="M373.7,232.54a1.23,1.23,0,0,0,0-.54.93.93,0,0,0-.38-.43,4.14,4.14,0,0,0-2.29-.44c-5.43,0-10.87.33-16.3.63a1.83,1.83,0,0,0-1,.27,1.87,1.87,0,0,0-.5.73,23.35,23.35,0,0,0-1.08,3,1.46,1.46,0,0,0,0,1.26,1.52,1.52,0,0,0,.76.43,27.75,27.75,0,0,0,5.36.87l11.87,1.16c.93.09,1.64.38,2.2-.38a5.75,5.75,0,0,0,.61-1.82A20.11,20.11,0,0,0,373.7,232.54Z" transform="translate(-7.02 -1.98)"/><path fill="url(#linear-gradient-14)" d="M373.26,232.71a1.18,1.18,0,0,0,0-.53.84.84,0,0,0-.38-.43,4.05,4.05,0,0,0-2.29-.44c-5.43,0-10.87.33-16.3.63a1.37,1.37,0,0,0-1.53,1,22.82,22.82,0,0,0-1.08,3,1.43,1.43,0,0,0,0,1.25,1.38,1.38,0,0,0,.76.43,28.55,28.55,0,0,0,5.36.88l11.87,1.15c.93.09,1.64.39,2.2-.37a5.92,5.92,0,0,0,.61-1.82A20.27,20.27,0,0,0,373.26,232.71Z" opacity=".58" transform="translate(-7.02 -1.98)"/><path fill="#189047" d="M374.86,235.63a.44.44,0,0,0,0-.32.76.76,0,0,0-.38-.27,6.53,6.53,0,0,0-2.26-.38c-5.43-.24-10.87-.33-16.3-.41a2.69,2.69,0,0,0-1,.11,1.15,1.15,0,0,0-.52.41,10.6,10.6,0,0,0-1.17,1.74c-.13.24-.24.52,0,.74a1.72,1.72,0,0,0,.74.3,46.53,46.53,0,0,0,5.33.78l11.82,1.26c.92.1,1.63.31,2.21-.11a2.93,2.93,0,0,0,.67-1.06A7.82,7.82,0,0,0,374.86,235.63Z" transform="translate(-7.02 -1.98)"/><path fill="url(#linear-gradient-15)" d="M374.41,235.71a.42.42,0,0,0,0-.31.73.73,0,0,0-.37-.28,6.36,6.36,0,0,0-2.27-.37c-5.43-.25-10.86-.33-16.3-.42a2.92,2.92,0,0,0-1,.11,1.27,1.27,0,0,0-.51.42,10.81,10.81,0,0,0-1.18,1.73c-.13.24-.24.53,0,.75a1.76,1.76,0,0,0,.75.29,44.13,44.13,0,0,0,5.33.78l11.82,1.27c.92.1,1.63.31,2.21-.12a2.81,2.81,0,0,0,.66-1.05A7.73,7.73,0,0,0,374.41,235.71Z" opacity=".58" transform="translate(-7.02 -1.98)"/><path fill="#189047" d="M343.2,227.34a3.55,3.55,0,0,1,1.72-1.76,4.39,4.39,0,0,1,2.07,0c3,.38,6.17.14,8.83,1.53a1.88,1.88,0,0,1,.87.75,2.11,2.11,0,0,1,.12,1.27,31.08,31.08,0,0,1-1.44,6.37,2.38,2.38,0,0,1-.41.81c-.25.3-.09,1.19-.48,1.2-3.45.07-7.63-1.07-11.08-1.24-2.1-.1-2.18-.9-2-3.16A14.51,14.51,0,0,1,343.2,227.34Z" transform="translate(-7.02 -1.98)"/><path fill="url(#linear-gradient-16)" d="M343.2,227.34a3.55,3.55,0,0,1,1.72-1.76,4.39,4.39,0,0,1,2.07,0c3,.38,6.17.14,8.83,1.53a1.88,1.88,0,0,1,.87.75,2.11,2.11,0,0,1,.12,1.27,31.08,31.08,0,0,1-1.44,6.37,2.38,2.38,0,0,1-.41.81c-.25.3-.09,1.19-.48,1.2-3.45.07-7.63-1.07-11.08-1.24-2.1-.1-2.18-.9-2-3.16A14.51,14.51,0,0,1,343.2,227.34Z" opacity=".58" transform="translate(-7.02 -1.98)"/><path fill="#189047" d="M356.62,198s8.68,19.91,8,41.37l2.42.27s-2.77-34.17-9.63-43.94C357.38,195.7,354,194,356.62,198Z" transform="translate(-7.02 -1.98)"/><path fill="#189047" d="M348.74,219.13c0,.33.05.65.07,1a7.21,7.21,0,0,1-.08,1.31c-.56,4.2-1.1,8.4-1.65,12.6l-2.3-.07a53.26,53.26,0,0,1,1.37-12.07,41.19,41.19,0,0,1,1.66-5.76c0-.05,0-.11.07-.17l1.42,1.63A4.26,4.26,0,0,0,348.74,219.13Z" transform="translate(-7.02 -1.98)"/><path fill="#189047" d="M329.32,226.3a1,1,0,0,1,.25-.64,1.08,1.08,0,0,1,.61-.22,46.34,46.34,0,0,1,15.89.38l.79,8.59c.07.68.06,1.5-.51,1.86a1.79,1.79,0,0,1-1.05.19,73.42,73.42,0,0,1-12.72-1.35c-.71-.14-2.22-.16-2.77-.65s-.49-1.38-.58-2A21.92,21.92,0,0,1,329.32,226.3Z" transform="translate(-7.02 -1.98)"/><path fill="url(#linear-gradient-17)" d="M329.32,226.3a1,1,0,0,1,.25-.64,1.08,1.08,0,0,1,.61-.22,46.34,46.34,0,0,1,15.89.38l.79,8.59c.07.68.06,1.5-.51,1.86a1.79,1.79,0,0,1-1.05.19,73.42,73.42,0,0,1-12.72-1.35c-.71-.14-2.22-.16-2.77-.65s-.49-1.38-.58-2A21.92,21.92,0,0,1,329.32,226.3Z" opacity=".58" transform="translate(-7.02 -1.98)"/><polygon fill="url(#linear-gradient-18)" points="311.84 292.28 341.39 297.29 327.67 233.52 316.59 231.85 311.84 292.28" opacity=".58"/><path fill="#bb826c" d="M172.53,259.05a1.69,1.69,0,0,1,.35-.91,1.65,1.65,0,0,1,.81-.41,4.1,4.1,0,0,1,2.68.07A2.13,2.13,0,0,1,177.7,260a13.59,13.59,0,0,1,1.86-2.65c.32-.36.75-.73,1.21-.62a1.21,1.21,0,0,1,.54.35,4.55,4.55,0,0,1,1.3,4,5.32,5.32,0,0,1,1.73-3.18,1,1,0,0,1,.5-.27c.36,0,.65.3.84.61a7.5,7.5,0,0,1,.92,5,6.73,6.73,0,0,1,.76-2.9c.1-.2.25-.41.47-.42a.63.63,0,0,1,.4.21,3.77,3.77,0,0,1,1,3.82c-.57,1.84-2.48,2.94-4.34,3.4a12.38,12.38,0,0,1-2.84.33,24.4,24.4,0,0,1-6.15-1.06,4.72,4.72,0,0,1-1.79-.74C172,264.17,172.16,261.42,172.53,259.05Z" transform="translate(-7.02 -1.98)"/></svg>