<svg xmlns="http://www.w3.org/2000/svg" width="336" height="400" preserveAspectRatio="xMidYMid meet" viewBox="0 0 336 400" style="width:100%;height:100%;transform:translate3d(0,0,0)"><defs><clipPath id="animationMask_FTHXiRCEKg"><rect width="336" height="400" x="0" y="0"/></clipPath></defs><g clip-path="url(#animationMask_FTHXiRCEKg)"><g opacity="1" style="display:block"><g opacity="1"><path fill="#189047" fill-opacity="1" d="M-22,-133.5 C-70,-155 -63.5,-49.5 -77,-46 C-90.5,-42.5 -85,-62.5 -98,-66 C-111,-69.5 -115.5,-50 -111.5,-25 C-107.5,0 -105,16.5 -110,24.5 C-115,32.5 -126.5,7.5 -144,19 C-161.5,30.5 -149,40.5 -154.5,84.5 C-161.34800720214844,139.28500366210938 -147,149 -129,153 C-111,157 -50.5,144.5 -46.5,120 C-42.5,95.5 -84.5,114.5 -88,103.5 C-90.59100341796875,95.35800170898438 -43,94 -38,63 C-33,32 -70.5,55.5 -75.5,41 C-80.5,26.5 -44,27 -22.5,-3 C-1,-33 -34.5,-24 -44.5,-24 C-54.5,-24 -50.5,-26.5 -50.5,-30.5 C-22.5,-83.5 -1,-120 -22,-133.5z" transform="matrix(1,0,0,1,168,200) matrix(1,0,0,1,0,0)"/></g></g><g opacity="1" style="display:block"><g opacity="1"><path fill-opacity="0" stroke="#000" stroke-linecap="butt" stroke-linejoin="miter" stroke-miterlimit="4" stroke-opacity="1" stroke-width="1" d="M-147.5,202.5 C-147.5,202.5 -83.5,-29.5 -27.5,-121.5" transform="matrix(1,0,0,1,168,200) matrix(1,0,0,1,0,0)"/></g></g><g opacity="1" style="display:block"><g opacity="1"><path fill-opacity="0" stroke="#000" stroke-linecap="butt" stroke-linejoin="miter" stroke-miterlimit="4" stroke-opacity="1" stroke-width="1" d="M-101.5,-43 C-101.5,-43 -80,-1 -80,-1 C-80,-1 -38,-5 -38,-5" transform="matrix(1,0,0,1,168,200) matrix(1,0,0,1,0,0)"/></g></g><g opacity="1" style="display:block"><g opacity="1"><path fill-opacity="0" stroke="#000" stroke-linecap="butt" stroke-linejoin="miter" stroke-miterlimit="4" stroke-opacity="1" stroke-width="1" d="M-132.5,36 C-132.5,36 -107.5,75 -107.5,75 C-107.5,75 -54.5,68 -54.5,68" transform="matrix(1,0,0,1,168,200) matrix(1,0,0,1,0,0)"/></g></g><g opacity="1" style="display:block"><g opacity="1"><path fill-opacity="0" stroke="#000" stroke-linecap="butt" stroke-linejoin="miter" stroke-miterlimit="4" stroke-opacity="1" stroke-width="1" d="M-161.5,91 C-161.5,91 -124.5,124 -124.5,124 C-124.5,124 -69.5,122.5 -69.5,122.5" transform="matrix(1,0,0,1,168,200) matrix(1,0,0,1,0,0)"/></g></g></g></svg>